# xmcd
#
# Track frame offsets:
#	150
#	13967
#	27696
#	41541
#
# Disc length: 824 seconds
#
# Revision: 1
# Processed by: cddbd v1.5.1PL2 Copyright (c) Steve Scherf et al.
# Submitted via: audiograbber 1.83.01
#
DISCID=30033604
DTITLE=Sha - Ja Ja
DYEAR=2006
DGENRE=R&B
TTITLE0=Ja Ja (Radio Version)
TTITLE1=Ja Ja (Instromental)
TTITLE2=Ja Ja (Acapella)
TTITLE3=Einfach Durch, oder?
EXTD=
EXTT0=
EXTT1=
EXTT2=
EXTT3=
PLAYORDER=
